<?xml version="1.0" encoding="UTF-8" standalone="no"?><!DOCTYPE svg PUBLIC "-//W3C//DTD SVG 1.1//EN" "http://www.w3.org/Graphics/SVG/1.1/DTD/svg11.dtd"><svg width="100%" height="100%" viewBox="0 0 144 144" version="1.1" xmlns="http://www.w3.org/2000/svg" xmlns:xlink="http://www.w3.org/1999/xlink" xml:space="preserve" xmlns:serif="http://www.serif.com/" style="fill-rule:evenodd;clip-rule:evenodd;stroke-linejoin:round;stroke-miterlimit:1.41421;"><rect x="0" y="72" width="144" height="72" style="fill:#353535;"/><rect x="0" y="0" width="144" height="72" style="fill:#e5e5e5;"/><path d="M41.168,58.44c-1.664,-0.064 -2.752,-1.216 -5.504,-5.248c-1.536,-2.176 -3.712,-5.184 -5.76,-8l4.736,-6.656c2.624,-3.712 3.648,-4.288 5.568,-4.416c0.192,-0.704 0.384,-1.664 0.384,-2.56c-1.344,0.064 -2.816,0.128 -5.376,0.128c-2.56,0 -4.096,-0.064 -5.696,-0.128c0,0.896 0.064,1.792 0.384,2.56c2.816,0.128 2.88,1.344 0.704,4.736l-2.56,3.904c-1.152,-1.6 -2.176,-3.008 -2.88,-3.904c-2.688,-3.648 -2.048,-4.608 0.96,-4.736c0.128,-0.704 0.32,-1.728 0.32,-2.56c-2.176,0.128 -4.864,0.128 -7.36,0.128c-2.496,0 -4.864,-0.064 -6.72,-0.128c0,0.96 0.128,1.856 0.448,2.56c1.984,0.192 2.624,0.832 6.272,5.696c1.344,1.792 3.072,4.16 4.864,6.72l-4.48,6.208c-3.2,4.48 -4.864,5.568 -7.168,5.696c-0.32,0.704 -0.384,1.792 -0.384,2.688c2.624,-0.128 4.352,-0.128 5.312,-0.128c1.28,0 4.352,0 6.72,0.128c0,-0.896 -0.128,-2.048 -0.384,-2.688c-2.496,0 -3.264,-1.6 -0.576,-5.504l2.688,-3.904c1.28,1.92 2.56,3.776 3.648,5.44c1.984,2.944 1.344,3.904 -1.664,3.968c-0.256,0.768 -0.256,1.6 -0.256,2.688c2.496,-0.128 5.184,-0.128 7.36,-0.128c2.176,0 4.096,0 6.72,0.128c0,-1.088 0,-1.856 -0.32,-2.688Z" style="fill:#353535;fill-rule:nonzero;"/><path d="M50.768,32.328l-4.16,0c-0.64,0.832 -0.96,1.792 -0.96,2.88c1.28,0 3.264,0.192 5.12,0.576l0,17.088c0,4.288 -1.024,5.376 -4.416,5.568c-0.256,0.704 -0.32,1.6 -0.32,2.752c1.664,-0.128 5.44,-0.192 8.448,-0.192c3.008,0 6.08,0.064 8.064,0.192c0,-1.152 -0.064,-2.048 -0.32,-2.752c-4.032,-0.192 -5.696,-1.28 -5.696,-6.848l0,-15.616c1.664,-0.512 3.584,-0.768 5.888,-0.768c0.512,-0.832 0.64,-2.048 0.64,-2.88l-6.528,0l0,-4.544c0,-7.616 0.576,-9.664 3.264,-9.664c1.536,0 3.008,1.6 3.008,6.464c1.216,0 3.072,-0.064 3.84,-0.512c0,-3.2 0.128,-5.44 0.704,-7.168c-1.216,-0.832 -3.776,-1.6 -6.272,-1.6c-5.44,0 -10.304,4.224 -10.304,14.464l0,2.56Z" style="fill:#353535;fill-rule:nonzero;"/><path d="M88.72,31.112c-4.288,0 -7.616,2.816 -8.768,4.736c-0.192,0.32 -0.448,0.704 -0.768,1.28c0.128,-0.768 0.256,-1.6 0.256,-2.752l0,-16.704c0,-1.6 -0.64,-2.304 -1.408,-2.56c-1.536,1.088 -6.656,2.176 -8.576,2.176c-0.448,0.704 -0.576,1.408 -0.576,2.368c4.352,0 4.8,1.536 4.8,4.544l0,24.896c0,5.056 -0.512,6.976 -1.408,8.128c2.56,2.432 6.656,4.352 12.48,4.352c9.6,0 15.936,-7.296 15.936,-16.256c0,-9.856 -4.48,-14.208 -11.968,-14.208Zm-3.648,27.52c-2.496,0 -4.16,-0.896 -5.632,-2.24l0,-9.024c0,-8.96 3.968,-12.224 7.744,-12.224c2.816,0 7.168,2.816 7.168,11.008c0,10.176 -5.76,12.48 -9.28,12.48Z" style="fill:#353535;fill-rule:nonzero;"/><path d="M126.096,40.008c-0.32,-2.24 -0.256,-4.608 -0.128,-6.656c-2.624,-1.472 -5.376,-2.24 -9.216,-2.24c-4.288,0 -10.624,2.56 -10.624,8c0,5.184 2.56,6.976 9.472,9.728c5.696,2.304 6.912,3.392 6.912,5.632c0,2.368 -2.048,4.096 -5.504,4.096c-4.416,0 -7.168,-2.624 -7.808,-8c-1.28,0 -2.624,0.192 -3.328,0.704c0.192,2.048 0.192,5.952 -0.064,7.936c2.88,1.536 5.44,2.368 10.56,2.368c6.656,0 11.712,-3.584 11.712,-9.024c0,-4.544 -2.176,-6.72 -9.088,-9.344c-6.848,-2.688 -7.616,-3.776 -7.616,-5.952c0,-2.112 1.728,-3.52 4.352,-3.52c4.16,0 6.912,3.52 7.168,7.04c1.216,0 2.368,-0.256 3.2,-0.768Z" style="fill:#353535;fill-rule:nonzero;"/><path d="M31.907,96.606c-4.288,-0.002 -7.617,2.813 -8.77,4.733c-0.192,0.319 -0.448,0.703 -0.768,1.279c0.128,-0.768 0.256,-1.6 0.257,-2.752l0.006,-16.704c0.001,-1.6 -0.639,-2.304 -1.407,-2.56c-1.536,1.087 -6.657,2.173 -8.577,2.173c-0.448,0.703 -0.576,1.407 -0.577,2.367c4.352,0.002 4.8,1.538 4.799,4.546l-0.01,24.896c-0.002,5.056 -0.514,6.976 -1.411,8.128c2.559,2.433 6.654,4.354 12.478,4.356c9.6,0.004 15.939,-7.29 15.943,-16.25c0.003,-9.856 -4.475,-14.209 -11.963,-14.212Zm-3.658,27.518c-2.496,0 -4.16,-0.897 -5.632,-2.242l0.004,-9.024c0.003,-8.96 3.972,-12.222 7.748,-12.221c2.816,0.001 7.167,2.819 7.164,11.011c-0.004,10.176 -5.764,12.478 -9.284,12.476Z" style="fill:#aaa;fill-rule:nonzero;"/><path d="M48.088,126.692c2.112,-0.127 4.928,-0.19 7.36,-0.189c2.432,0.001 4.992,0.066 7.232,0.194c0,-0.576 -0.064,-1.856 -0.319,-2.752c-2.752,-0.001 -3.776,-1.281 -3.774,-5.569l0.013,-35.2c0.001,-1.6 -0.639,-2.304 -1.407,-2.561c-1.536,1.088 -6.657,2.174 -8.577,2.173c-0.448,0.704 -0.576,1.408 -0.577,2.368c4.352,0.002 4.8,1.538 4.799,4.546l-0.011,28.672c-0.002,4.288 -1.026,5.567 -4.418,5.566c-0.257,0.832 -0.321,1.92 -0.321,2.752Z" style="fill:#aaa;fill-rule:nonzero;"/><path d="M81.943,127.089c8.64,0.003 14.467,-6.459 14.47,-15.227c0.004,-9.088 -5.37,-15.234 -14.458,-15.237c-8.512,-0.004 -14.467,6.522 -14.47,15.226c-0.003,9.216 5.69,15.234 14.458,15.238Zm0.514,-3.072c-5.184,-0.002 -8.511,-4.867 -8.507,-13.507c0.002,-6.4 2.436,-10.815 7.364,-10.814c4.736,0.002 8.702,4.996 8.699,12.932c-0.003,6.72 -2.436,11.391 -7.556,11.389Z" style="fill:#aaa;fill-rule:nonzero;"/><path d="M117.017,122.494c-8.192,-0.003 -9.28,-0.388 -9.279,-2.692c0.001,-0.832 0.449,-1.855 1.601,-3.007c1.536,0.577 3.2,0.833 4.928,0.834c7.552,0.003 11.586,-4.796 11.588,-10.748c0.001,-1.92 -0.894,-4.608 -2.941,-6.721c1.984,0.193 4.607,0.642 6.207,1.026c0.001,-1.344 -0.127,-2.88 -0.446,-3.968l-10.496,-0.004c-1.152,-0.384 -2.496,-0.577 -4.032,-0.577c-7.616,-0.003 -11.522,4.731 -11.524,10.619c-0.001,3.648 1.598,6.401 4.029,8.13c-2.049,1.983 -3.394,4.351 -3.395,6.783c-0.001,2.432 0.703,3.904 3.071,4.737c-3.073,1.407 -4.738,3.774 -4.739,6.91c-0.002,5.632 3.261,8.641 11.133,8.644c9.216,0.004 15.874,-7.034 15.877,-12.858c0.001,-5.184 -3.006,-7.105 -11.582,-7.108Zm-3.511,-22.977c4.032,0.001 6.334,3.778 6.333,8.322c-0.002,4.48 -1.987,6.847 -4.803,6.846c-4.096,-0.001 -6.527,-2.946 -6.525,-8.258c0.002,-3.52 1.603,-6.912 4.995,-6.91Zm0.753,39.552c-5.248,-0.002 -7.167,-2.243 -7.166,-6.595c0.001,-2.112 0.514,-3.584 2.178,-4.991c0.96,0.064 2.112,0.129 3.456,0.129c8.768,0.004 10.56,1.22 10.559,4.484c-0.002,3.648 -3.395,6.975 -9.027,6.973Z" style="fill:#aaa;fill-rule:nonzero;"/></svg>